<?xml version="1.0"?>
<svg width="640" height="480" xmlns="http://www.w3.org/2000/svg" xmlns:svg="http://www.w3.org/2000/svg">
 <!-- Created with SVG-edit - https://github.com/SVG-Edit/svgedit-->
 <g class="layer">
  <title>Layer 1</title>
  <path d="m206.5,217.700012c6,8 8,20 28.5,19.299988c20.5,-0.700012 0.5,-94.299988 5,-109c30.5,7.299988 22.5,-1.899963 26.5,6.700012c4,8.599976 14,113 -17.5,129.299988c-31.5,16.299988 -73.5,-18.299988 -69,-36c4.5,-17.700012 20.5,-18.299988 26.5,-10.299988z" fill="#FF0000" id="svg_1" stroke="#000000" stroke-width="5"/>
  <path d="m371.5,135.700012c-25,-10 -59,-1 -67.5,7.299988c-8.5,8.299988 -17.5,102.700012 -7,115c10.5,12.299988 52.5,9.700012 69,8c16.5,-1.700012 23.5,-50.299988 16,-61c-7.5,-10.700012 -30.5,-17.299988 -41,-4c-10.5,13.299988 3.5,6.700012 15,15c11.5,8.299988 -0.5,31.700012 -23,20c-22.5,-11.700012 -16.5,-62.299988 1,-72c17.5,-9.700012 46.5,19.700012 53.5,0.700012c7,-19 9,-19 -16,-29z" fill="#FF0000" id="svg_11" stroke="#000000" stroke-dasharray="null" stroke-linecap="null" stroke-linejoin="null" stroke-width="5"/>
 </g>
</svg>